@startuml
title 基于GitHub的实验管理平台--类设计图
abstract class users{
    <b>user_id</b>（用户ID）
    name （用户真实姓名）
    github_username （用户GitHub账号）
    update_date （用户GitHub账号修改日期）
    password （用户密码）
    disable （用户是否禁用）
 }

 class students<extends users>{
    <b>student_id</b> （学号）
    class_id （班级id）
    web_sum （网站正确与否汇总）
 }

 class teachers<extends users>{
     <b>teacher_id</b> （老师工号）
     department （老师所属部门）
 }

 class class{
    <b>class_id</b> （班级编号）
    college （所属学院）
    subject （专业）
    grade （年级）
    class_num （班级号）
 }

 class manager<extends users>{
    <b>manager_id</b> （管理员id）
 }

class course{
    <b>course_id</b> （课程编号）
    course_name （课程名称）
    course_detail （课程描述）
    teacher_id （教师ID）
}

class tests{
    <b>test_id</b> （实验id）
    test_name （实验名称）
    test_detail （实验描述）
    course_id （所属课程id）
}

class score_rules{
    <b>rules_id</b> （评分细则id）
    test_id （实验id）
    rules_detail （评分细则描述）
    rules_percent （评分占比）
}

class select_course{
    <b>select_id</b> （选课id）
    student_id （学生id）
    course_id（课程id）
    all_score（课程总分数）
    memo（评语）
}

class test_score{
    <b>score_id</b>（分数id）
    select_id（选课id）
    test_id（实验id）
    rules_id（评分细则id）
    result（分数）
}
users <|-down- students
users <|-right- teachers
users <|-left- manager
students "*"--"1"class
teachers "1"--"*" course
course "1" --"*"tests
tests "1"--"*"score_rules
students "1"--"*" select_course
course "1"--"*" select_course
select_course "1"--"*" test_score

@enduml